<?xml version="1.0" standalone="no"?>
<!DOCTYPE svg PUBLIC "-//W3C//DTD SVG 20010904//EN"
 "http://www.w3.org/TR/2001/REC-SVG-20010904/DTD/svg10.dtd">
<svg version="1.0" xmlns="http://www.w3.org/2000/svg"
 viewBox="0 0 200.000000 223.000000"
 preserveAspectRatio="xMidYMid meet">

<g transform="translate(0.000000,223.000000) scale(0.100000,-0.100000)"
fill="#000000" stroke="none">
<path d="M982 2174 c-13 -25 -18 -43 -14 -40 5 3 15 19 22 36 7 16 16 30 20
30 4 0 15 -18 25 -40 10 -23 22 -43 27 -46 5 -4 -2 17 -16 44 -14 28 -29 53
-34 56 -5 3 -18 -15 -30 -40z"/>
<path d="M1145 2123 c-45 -38 -58 -44 -66 -32 -5 9 -9 10 -9 2 0 -20 19 -25
38 -11 31 22 106 88 100 88 -3 0 -31 -21 -63 -47z"/>
<path d="M802 2113 l1 -48 4 43 c2 23 6 42 9 42 2 0 26 -16 54 -36 27 -20 50
-34 50 -31 0 8 -99 77 -110 77 -6 0 -9 -21 -8 -47z"/>
<path d="M1202 2063 l-2 -82 75 31 c42 17 74 32 72 34 -2 2 -32 -7 -67 -21
-35 -14 -65 -25 -66 -25 -2 0 -5 33 -7 73 l-3 72 -2 -82z"/>
<path d="M945 2109 c-4 -6 -5 -12 -2 -15 2 -3 7 2 10 11 7 17 1 20 -8 4z"/>
<path d="M974 2055 c-16 -30 -32 -55 -36 -55 -4 0 -23 14 -41 30 -19 17 -37
30 -41 30 -3 0 -3 -25 0 -55 l7 -56 -57 7 c-31 4 -56 4 -56 0 0 -4 18 -34 40
-67 l41 -59 182 0 182 0 38 63 c40 69 44 78 25 73 -7 -3 -33 -7 -57 -10 l-43
-7 7 56 c3 30 4 55 2 55 -2 0 -21 -13 -42 -30 -21 -16 -41 -30 -44 -30 -3 0
-19 22 -34 50 -15 27 -32 52 -36 55 -5 2 -22 -20 -37 -50z"/>
<path d="M1363 2045 c0 -8 4 -12 9 -9 4 3 8 9 8 15 0 5 -4 9 -8 9 -5 0 -9 -7
-9 -15z"/>
<path d="M811 2028 l-1 -27 -57 20 c-76 26 -79 17 -2 -10 33 -13 63 -20 66
-18 2 3 3 18 0 34 l-4 28 -2 -27z"/>
<path d="M714 1941 c49 -70 56 -85 56 -127 l0 -49 -375 -375 c-206 -207 -375
-380 -375 -386 0 -5 220 -232 490 -504 l490 -495 291 295 c160 162 383 388
497 502 l205 206 -371 379 -372 378 0 51 c0 46 6 59 55 128 30 42 53 76 50 76
-3 0 -32 -36 -65 -81 -49 -66 -60 -88 -60 -120 l0 -39 -225 0 -225 0 0 43 c0
36 -9 55 -56 120 -30 42 -58 77 -60 77 -3 0 20 -36 50 -79z m106 -376 c-30
-30 -57 -55 -61 -55 -3 0 -32 24 -65 54 l-59 54 60 61 60 61 60 -60 60 -60
-55 -55z m250 120 l55 -55 -63 -63 -62 -62 -56 56 -56 56 57 61 c32 34 60 62
64 62 4 0 31 -25 61 -55z m250 0 l55 -55 -60 -60 -60 -60 -60 60 -59 60 54 55
c30 30 59 55 65 55 6 0 35 -25 65 -55z m270 -344 c-15 -20 -40 -47 -54 -60
l-26 -25 -65 64 -65 64 57 58 57 58 63 -62 62 -61 -29 -36z m-1018 92 l57 -57
-52 -55 c-28 -31 -56 -58 -60 -60 -11 -4 -117 99 -117 113 0 10 100 116 109
116 3 0 31 -26 63 -57z m248 2 l54 -55 -59 -60 -59 -60 -53 52 c-29 29 -53 55
-53 58 0 9 101 120 109 120 4 0 31 -25 61 -55z m496 -1 l47 -55 -54 -55 c-29
-29 -57 -54 -62 -54 -13 0 -107 92 -107 104 0 15 102 116 116 116 7 0 34 -25
60 -56z m-226 -100 c33 -34 34 -67 4 -103 -35 -42 -56 -26 -24 17 22 30 22 32
6 56 -14 22 -24 26 -61 26 -62 0 -80 -29 -80 -125 0 -55 7 -87 33 -153 36 -94
41 -162 18 -252 -8 -30 -14 -56 -13 -56 25 -19 77 -34 113 -34 79 0 114 54 54
85 -34 17 -39 35 -11 35 25 0 71 -44 71 -69 0 -26 -53 -69 -95 -77 -21 -4 -53
0 -85 11 -47 16 -53 16 -69 1 -10 -9 -35 -16 -58 -16 -34 0 -46 6 -67 31 -31
37 -32 43 -6 69 24 24 30 24 77 5 41 -17 45 -15 62 34 19 57 13 140 -15 221
-46 132 -45 245 2 295 23 25 30 27 75 23 31 -3 58 -12 69 -24z m-751 -176 l38
-37 -56 -55 -57 -56 -59 60 -59 60 54 55 54 55 24 -23 c13 -12 41 -39 61 -59z
m223 -90 l-62 -63 -53 59 -52 59 60 58 60 58 55 -54 55 -55 -63 -62z m998 -3
l-60 -60 -56 57 -56 57 58 61 58 61 58 -58 58 -58 -60 -60z m250 119 l53 -56
-44 -46 c-74 -78 -69 -77 -117 -29 -71 71 -71 72 -11 133 29 30 56 54 60 54 3
0 30 -25 59 -56z m-1045 -66 c33 -1 35 -3 35 -37 l0 -35 -28 33 c-22 26 -33
32 -57 29 -24 -2 -30 -8 -30 -28 0 -20 8 -27 50 -43 51 -18 85 -48 85 -74 0
-7 -11 -25 -25 -39 -24 -24 -31 -25 -98 -22 -66 4 -72 7 -75 27 -2 12 -1 30 3
39 5 13 10 9 25 -16 33 -54 105 -55 105 -1 0 19 -11 29 -53 50 -68 32 -81 52
-55 87 18 25 59 44 75 35 4 -2 23 -4 43 -5z m445 -16 c-15 -13 -21 -26 -18
-47 l3 -30 40 37 c33 31 37 39 25 48 -11 7 -1 10 35 9 28 0 43 -3 35 -7 -24
-11 -90 -63 -90 -72 0 -15 91 -109 113 -116 22 -7 22 -8 -3 -15 -37 -10 -100
-10 -100 0 0 5 6 11 13 14 7 3 -4 21 -30 48 l-43 44 0 -44 c0 -34 4 -44 20
-48 41 -11 18 -23 -42 -23 -55 1 -61 2 -45 14 25 19 25 180 0 195 -14 8 -2 10
46 11 62 0 63 0 41 -18z m-890 -167 l55 -55 -58 -57 -57 -58 -55 55 -55 54 53
57 c28 31 54 57 57 58 3 0 30 -24 60 -54z m243 6 c26 -27 47 -53 47 -58 0 -5
-25 -33 -55 -63 l-56 -55 -56 58 -56 58 54 55 c29 30 58 54 64 54 5 0 31 -22
58 -49z m1000 -9 l57 -58 -60 -59 -60 -59 -55 54 c-30 30 -55 59 -55 64 0 11
100 116 110 116 3 0 31 -26 63 -58z m245 5 l52 -53 -60 -59 -60 -59 -55 54
-55 54 57 58 c32 32 60 58 63 58 3 0 29 -24 58 -53z m-1237 -366 c-29 -34 -57
-61 -61 -61 -4 0 -33 28 -64 62 l-57 62 58 58 58 58 59 -59 59 -59 -52 -61z
m741 -4 l-57 -57 -60 60 -60 60 59 59 59 60 58 -62 57 -62 -56 -58z m-489 -9
l-57 -58 -63 62 -63 62 57 58 57 58 63 -62 63 -62 -57 -58z m737 131 l54 -49
-62 -62 -62 -63 -50 50 c-27 27 -50 54 -50 59 0 11 100 116 110 116 3 -1 30
-23 60 -51z m-497 -371 l-57 -58 -58 57 -58 57 57 58 57 58 58 -57 58 -57 -57
-58z m245 119 l52 -53 -58 -57 -58 -57 -54 55 -54 55 54 55 c30 30 57 55 60
55 3 0 29 -24 58 -53z m-495 -119 l-57 -58 -48 47 c-26 26 -48 52 -48 57 0 6
23 34 52 63 l52 53 53 -52 53 -52 -57 -58z m247 -133 l55 -55 -58 -57 -57 -58
-54 54 -55 54 52 58 c28 33 54 59 57 59 3 0 30 -25 60 -55z"/>
<path d="M836 761 c-9 -14 4 -40 26 -52 23 -12 58 -3 58 16 0 29 -70 59 -84
36z"/>
</g>
</svg>
